<?xml version="1.0" encoding="iso-8859-1"?>
<!-- Generator: Adobe Illustrator 19.0.0, SVG Export Plug-In . SVG Version: 6.00 Build 0)  -->
<svg version="1.1" id="Layer_1" xmlns="http://www.w3.org/2000/svg" xmlns:xlink="http://www.w3.org/1999/xlink" x="0px" y="0px"
	 viewBox="0 0 512 512" style="enable-background:new 0 0 512 512;" xml:space="preserve">
<g>
	<g>
		<g>
			<polygon points="237.393,277.338 274.62,277.338 255.996,209.092 			"/>
			<path d="M426.667,0H85.333C73.557,0,64,9.557,64,21.333v469.333C64,502.443,73.557,512,85.333,512h341.333
				c11.797,0,21.333-9.557,21.333-21.333V21.333C448,9.557,438.464,0,426.667,0z M325.611,383.253
				c-1.877,0.512-3.755,0.768-5.632,0.768c-9.365,0-17.963-6.251-20.565-15.744L286.251,320h-60.501l-13.163,48.277
				c-2.581,9.493-11.179,15.744-20.565,15.744c-1.877,0-3.733-0.256-5.611-0.768c-11.392-3.115-18.091-14.827-14.997-26.197
				l64-234.667c0.235-0.853,0.832-1.472,1.152-2.261c0.576-1.408,1.152-2.709,1.984-3.947c0.768-1.109,1.621-2.027,2.539-2.944
				c1.003-1.024,2.027-1.941,3.221-2.752c1.152-0.768,2.368-1.301,3.627-1.835c0.875-0.363,1.536-0.981,2.475-1.237
				c0.491-0.128,0.96,0,1.472-0.085c1.365-0.277,2.752-0.256,4.181-0.277c1.387,0.021,2.709,0,4.053,0.277
				c0.512,0.085,1.003-0.043,1.493,0.085c0.939,0.256,1.621,0.896,2.475,1.259c1.28,0.533,2.475,1.045,3.627,1.813
				c1.195,0.811,2.197,1.728,3.2,2.731c0.939,0.939,1.792,1.856,2.539,2.965c0.853,1.237,1.429,2.539,1.984,3.947
				c0.341,0.789,0.917,1.408,1.152,2.261l64,234.667C343.701,368.427,336.981,380.139,325.611,383.253z"/>
		</g>
	</g>
</g>
<g>
</g>
<g>
</g>
<g>
</g>
<g>
</g>
<g>
</g>
<g>
</g>
<g>
</g>
<g>
</g>
<g>
</g>
<g>
</g>
<g>
</g>
<g>
</g>
<g>
</g>
<g>
</g>
<g>
</g>
</svg>
